<svg width="27" height="19" viewBox="0 0 27 19" fill="none" xmlns="http://www.w3.org/2000/svg">
<path d="M22.7616 0.753514C23.1397 0.443165 23.7321 0.443165 24.0976 0.753514C24.4757 1.06386 24.4757 1.57755 24.0976 1.8879L21.8038 3.83561C23.6313 5.24823 25.1815 7.15314 26.341 9.44331C26.4418 9.64664 26.4418 9.88208 26.341 10.0747C23.6439 15.4042 18.842 18.5933 13.4982 18.5933H13.4856C11.0532 18.5933 8.72157 17.9191 6.66724 16.6884L4.2222 18.7645C4.03315 18.925 3.79369 18.9999 3.55422 18.9999C3.31476 18.9999 3.0627 18.925 2.88625 18.7645C2.57117 18.497 2.52076 18.0689 2.77282 17.7585L2.81063 17.7157L21.4509 1.8879C21.4761 1.86649 21.5013 1.84509 21.5139 1.82369C21.5391 1.80228 21.5643 1.78088 21.5769 1.75948L22.7616 0.753514ZM13.5016 0.939617C15.3039 0.939617 17.0557 1.30348 18.669 1.98839L14.4595 5.56276C14.157 5.51995 13.8293 5.48785 13.5016 5.48785C10.7163 5.48785 8.46031 7.40345 8.46031 9.76853C8.46031 10.0468 8.49812 10.325 8.54853 10.5819L3.88531 14.5415C2.62498 13.3001 1.5285 11.8019 0.658872 10.0789C0.558045 9.88625 0.558045 9.65081 0.658872 9.44748C3.35598 4.11803 8.15783 0.939617 13.489 0.939617H13.5016ZM17.6573 7.35647L16.2835 8.52296C16.5104 8.88682 16.6364 9.31489 16.6364 9.76436C16.6364 11.2305 15.2249 12.4291 13.4982 12.4291C12.9689 12.4291 12.4647 12.3221 12.0362 12.1294L10.6625 13.2959C11.4691 13.7561 12.4521 14.0343 13.4982 14.0343C16.2709 14.0343 18.5269 12.1187 18.5269 9.76436C18.5269 8.87612 18.1992 8.04138 17.6573 7.35647Z" fill="#606060"/>
</svg>
